<mxfile host="Electron" modified="2023-09-18T08:25:05.636Z" agent="Mozilla/5.0 (Windows NT 10.0; Win64; x64) AppleWebKit/537.36 (KHTML, like Gecko) draw.io/21.7.5 Chrome/114.0.5735.289 Electron/25.8.1 Safari/537.36" etag="SqjhwOewLHR9HOENBu5c" version="21.7.5" type="device">
  <diagram name="第 1 页" id="pP-eCMK7QGOQflEDIPFj">
    <mxGraphModel dx="3217" dy="2576" grid="1" gridSize="10" guides="1" tooltips="1" connect="1" arrows="1" fold="1" page="1" pageScale="1" pageWidth="827" pageHeight="1169" math="0" shadow="0">
      <root>
        <mxCell id="0" />
        <mxCell id="1" parent="0" />
        <mxCell id="EotIMpFfySxsgPy9Xf7X-8" value="" style="group" vertex="1" connectable="0" parent="1">
          <mxGeometry x="-440" y="-20" width="1186" height="710" as="geometry" />
        </mxCell>
        <mxCell id="EotIMpFfySxsgPy9Xf7X-4" value="" style="rounded=1;whiteSpace=wrap;html=1;" vertex="1" parent="EotIMpFfySxsgPy9Xf7X-8">
          <mxGeometry width="1186" height="710" as="geometry" />
        </mxCell>
        <mxCell id="EotIMpFfySxsgPy9Xf7X-1" value="" style="shape=image;verticalLabelPosition=bottom;labelBackgroundColor=default;verticalAlign=top;aspect=fixed;imageAspect=0;image=data:image/png,iVBORw0KGgoAAAANSUhEUgAAAUIAAAI8CAYAAACEbaKwAAAAAXNSR0IArs4c6QAAAARnQU1BAACxjwv8YQUAAAAJcEhZcwAADsMAAA7DAcdvqGQAAF9aSURBVHhe7b0J2BbVffd/AMENRXBBARHFLeCCohFURMEFl7yJ+acxiTYmbfPmbXL90zZtY9KkWZo2V7N0b5Krb/pPbXbTK0vbJJVEE0VRcEFRXEBFXBBERFGQHf735zz37+EwzMw9c+/3c76f55rrmXuWM2fOnPM9v3POzO8MOvXaz+/aNXgfJwYug3Zud4PXP+O2PHlndYsQYteuXe7EE090r776qhssERz48Ix3jJzoBg8eXN0ihBg0aJD/jyAOOv/883f5X2JAs+2A0e7l5YvdPvuo4hPCOOGEE9zLL78sIYyJVatWuaFDh1Z/CdE8qGA/9rGP+fUvfelLbvv27X69CH/wB3/gTj311OqvdB5++GH3D//wD9VfezN69Gj34osvVn/tSd4+E0K1lYQQDXPIIYe44447zi8jRoyobi1GLRGEvGMQur/6q79y11xzTXXLbtjGPo7JgqaxhFAI0TBr1671FhsLFlY7wdr71a9+5S655JI9xJB1trEvyyI0MpvGH/zgB91+++1X/dXHf/7nf7oVK1ZUf5XngAMO8Cbz1q1bq1v25uKLL3YHH3yw+/GPf1zd0nxqxWPChAk+HkcccYQfUbrjjju8ad5siqRHM1HTWLSS4cOH+/8bNmzw/4vyr//6r+73fu/3qr/SKXJMKHxg6zfddJP/nQZNY0Q80yJkWPmWW25xP/nJT/qXWqpai3e+853uzDPPrP7amyFDhrjZs2e76dOn9ydqK8iLx8knn+x+//d/3z322GPu3//93919993n3vWud7nzzjuvekTzqJUeQvQKlNcvfvGLfmll2c0DwTPLsIgIwsiRI93YsWPzm8YrV650zz77bP+yadMmvx3BmjFjhnv3u9/tLSezHIcNG+Yuv/xyd9RRR/lCftVVV/UnytSpU9348ePdWWed5WbOnOm3JZk8ebK/5uLFi/1xIViJl112mRel008/vbo1eztxrFi7fvuFF17YbwnVigfH/9u//ZubP3++j8s999zja6O3vvWtfrjd7nHixInu2muvdaNGjcq8Fhx44IH+oZBWpJm9wpIWj1rpGl5TCNE4r7zyinv++efr6yP8nd/5HW85LVmyxBfKP/qjP/KFmAJLob/ooovc448/7tX2Qx/6kD9nzZo17vXXX/f/EZg0zjnnHHfvvff6hXUDYfnTP/1Tt3nzZvfQQw+5K6+80k2ZMiVzO/zu7/6uO+mkk9yjjz7qhblIPI488kg/+kXcQ55++mk/IkanKvd46aWXeqF68skn3ZYtWzKvxbGf+MQnvBgSvze96U1eUCEtHnnpmrymEN0EzeEbbrjBL2Wbxs0ibBqbZRj2GeaRK4QUxM985jN+YR3GjRvn+9Cwmug3++EPf+iFyASIQvujH/3IF/zvfve73uzcf//93XPPPefVF8uSwpyE/jLE5MEHH3TLli3zI08IExx00EHeOsI6Q2z+9m//1luNWduPPvpoP0r0zW9+08fj+9//vo8DI1p58cC6LNLRizgR9sKFC71gZV2Lvr+/+Zu/cT/96U/dI4884h/OpEmTfBjJeNRK1/CaGzdu9NuE6CaOPfZYv3SCUARpDofN5CJimCuENAn/7u/+zi/f+MY3/LYxY8a4Z555Zo/3hCjIbAeaz2ax7Ny50//ed999/e88aCq+9tpr7s1vfrNvZiISZhWuW7fON1U/97nP+f47E4es7VhliBq108c//nG/HHbYYe7QQw/1+7MgrghyLbi/bdu2+fVa10KUsRj/7M/+zL33ve/NfKG5VrqG1xSi2yC/8z4gS61y1mwwREIRNEIxzHt9BnKFkKYb4sRi5i5WSlIsaPqxvRGmTZvmhYBEZGEdUbTPYLCq/vzP/9zdfvvtvh+OfsGs7YgGlpYN57NwzKJFi/w5Wbzwwgv+fSiELIQmPkJrcQnJuxYWHrURcfvyl7/cX5mk0ap0FaIdrF+/3i1fvtwvrJeBFhBGV96S99YGg7if/OQnUwdG2Ma+WgO9pfsIn3jiCW+lUMgBkWDkk36tWmDtpL1sefjhh/tXVb7zne94YWOxpiGj1zSRGUCgqUkTmEShSZq1nTjS1ETQsPIYoLjuuut8kxWy4rFjxw5fg2DBWa3GYA8DFLxGQx9hkrxrkTb0AWLZYc2dffbZ1bP6COPRSLoK0WnIy1/4whf8ErZqioDxwKsxeQvH5JEndEXedhkyfvz4z1bX9wDLat68eXtZJNwknfvXX3+9t9hmzZrl/uu//su/bkL/IFYZYmLQwX/nnXf6cLAs3/GOd/hBA/r1DMKgKUwfWwhiwuDBggULvIgw0MCrNTRHEUr689K2UyNh3b3//e/32+fMmeP76ExUsuIB1GhYYjRjiTuDFEuXLnX/8R//0T9YEt4jApd1LeKHmLGNc7CwEVgsRAjjcdddd5VK13rAqqevUQjRB+XxjTfeqP9bYywf+sYo3FhSRaF5yWhvPS8RI4ycT8RDsrZbHBlcSPav1YoH+xmM4dwi95d3LaxKtlnfaUgyHvWmaxH0QrUQe8IL1S+99JKcLsSEhFCIPTEhrOs9QiGEGEjIIowILEIhxG54r9c3jadNmyYhFEL0PAzIlu364c0TNY2FEKKChFAIET0SQiFE9EgIhRDRIyEUQgxo8B/AkoeEUAgxYMFN3wc+8AG/mKPjNKIWwryEEUL0NnxX/773vc87M2FhPetb+5rvEfLdKx5ekuAIASeo9YJjA8hyMsp+HA/gnh5nB3hn+fWvf13ILVVa2MlteHn58Ic/7L73ve+5Bx54wG8TQvQuyfcI3/Oe93inLCF4v6fMG4XfI8TzCd/jcQFme7Il6eCgLHhrYUkDxwP4/8MLC95g8PeHs1Y8sxQhLezkNr6yYFY+BFYIMbDAv2lSBIFt7EsyZNy4caluuAychSJCuI66+eabvVsoFrxDAx6X8STNgl8+XE/hZQU/e7iwwosKFz/jjDO8Cy/OQ+BOOeUU7zWG4xA7vFkbeJPl3Llz5/qFOUQIF5c5XBuvLFyXGyIszF78/uHhJS1sJkhKbuO+cPFFuJjLWXEFzsMNFmFgUeIJm5rE5hrBnyJx4Tw6ZVevXr3H/QghWg9l1pq+TMhk+pFc2GfQ4sWSLNxHyAUQH1sAF1I4TXzLW97i3fEjOB/96Ee9GODCitnZ8OuHc1VmqmeuZFzXIyyEx8JxWIAh+OnDLRWihFhhjTKXybe+9S2/3a7LzG7s4zjmVCHctLDTtln8ELG8uHIOkzHhmxDnqzhpZXKq0047zceVhPzDP/xDL47E64orrig8YYwQorNgsGBYFRZCpub867/+6/4FcUE0jj/+eO9Rmnb317/+dT8AgfVk0P/2L//yL+6rX/2qFwomaMK6tCY25yV9AtLsvvHGG71gIXh/8Rd/4QXIvDnbdZnM6Ac/+IH7x3/8R98HiBPUtLBrXc9IiysLDl+ZcJ7rsT90qY9lSCWAY1Umrfra177m51ERQvQOhYWQwRGEwBaavwgE2GxwuLNHbGw70EwEmqBQZCInYCY7JotmFjjMWYTvIx/5iD/fwv/t3/5tPz/IH//xH3vLDeuuEdLiavOXhPdoTWZgqk/mV8HT9Kc//Wk/wFPWVbkQorMUFkL8/jMviC2YlDaCG1pIrBcZ2c3jmGOOcVdffbVvdjKocdttt7lf/vKX3iJE7MzTM9OFYqGxfOUrX3G33nqr395M7F6IC2Cl2gg00C/5T//0T16wuT5xp1mNMAsheoPCQpgGgxgIAXNyIFCzZ8/2/W3JuUfSQMzoS0ybB5V9zP9BXxtNUwYpzjvvPC9KDHUzYILVRd8g/xmkYcIl/tv5ybDzrpcH90hT+m1ve5sfDHnnO9+5h1XLfCOf+tSnvJXK5FF0xNJvKSEUorNgrKEPaBQL61mDmA0JIc1EZp5j1JZ5fRlQ4F2/+++/v3pENvSp0Z/Iu3yhhQU0UenLY/SYN8J5ERJLjH5DBM2ui0gyX/C73vUu/xoMzWlICzvvenkwcMOk63SoMrKMZRzOisU1n3rqKf+uJU1jJnZnCsGsfkghROtB8GhB8h4yA5ssrLMtTQyb4piVgQUmKGI6yzL9Y4gb7ynmNaUZlCHiCGCSvOumhV3kekmw7Hj5mln26BvkNxYgr+B8+9vfrh7V9xoR3QK8gpM27acQorVQrmmNoRcMYibnJzcYx8DYQg/shWp5qK4BwsmrOViTWH80gbFUmazdBlCEEJ0HIcQgoT+fV9/yeO6553xrj/IsISwIIsh7grzQjfVJXyCJJ4ToHhBCWmyMA9Tq/uLDCN74oFtPQiiEGDAghDR3GVyl2ywPuq+WLFnixo4d64WwocESIYToNmqJICSPqWkRbtiwwSutBgCEEN0AIkZ3FQOlIWYR8olsEejiMoswVwgRQQLm/Tv+CyFEp2FUmFfo+B+KYSNCmKtuBCwRFEJ0E2acoU/NItciRClrDUOLeGDEnBfF097pFKJV8CUXr7HxTnEIr8CE/gVa1jSWEAoDEWThhdUindFCGI22KGkCUwEjhKEYNlMI1eYVhSAjSgRFJ0DcsAhb+dmqhFAUguawRFB0CsSwlV0yEkIhREcYOXKk9+iEI2cW1tnWCXLnLMFTtHmFDuF7Prys4M2BT1RoMvHdXjeC1wniyDeFtnBfjdQu1kRMe7cy63p8+sN8Ki+88IJfnzx5sp9npVfgkyTuuxE4H7dl3Dt9z3SC48zCYN4b+mvw9MM64MQiCWnMaxN2bplwDdzFcbw54+UY+pjoBzV4TriDoy9K1E9aSwL9YFI4JmbDcxTu63g+PEfSPXx+Bk3j8NM5NCf8jeMVroUvgCJQ/vgumfJZl0VIRuSCjzzyiFu6dKkbNWqUF8VuhGF2EhtXWbZw443AVAFHHHFE9deeZF2PAoZDWx42acdxsYHYcO9MqYjPStJw0qRJ1b3OewuhENg66ZwEAeRbUoTMKBOuQWVOvjU4ZurUqf3z8QDNsSwPJqJ+sPrwHXr33Xd7x8sYJSyss4197bYMSwshGQorEc8rFHBqbBylhnMIkykZjcFf4Pjx4/szIf+pCUIQUDIc+3B3hUAwYRNvjofhkDgcZ+TtS8KL4dQetpjLrrx4EhdqGwojcTZriNqGQsh/rptG2vWIX9bDLXMv3QTPiLlkmCumFqQpwkPlSV5Zv369W7RokU+fLJJiBTyXsCKrJ9wssEKo5EVr4RliBeIsFazlBGxjH8e0A9Oe0iUOi4YMh4CZONCkQM0NPnomczL3B4WFgsIFWSjwIRR8hIB9uLlHkHhrnOtYOPgBRJTwAGOwD2HhGuw7/fTTq3uKkxdP4kIzi8JBU8vCpxBiovMfwStK2r0bzbiXTsA8MtTkocWFT0aaN7zCEHar8DwRJyw1RgABKzmv2Yl3kLBAcA3yC3PEGPWEmwUWOxUxXRuidZAvbN4fBJDKh8XEkH1pXXKtgFdzyEN1mR5MrUltTf8JzQkKOGIGWEu0u6mhcYCIDz8uVGRiJcSC8+i3QZgICw8R9O/QBMczNIWB7RQ4uwb7iE9W4iFw06ZN84tZL7XiSVyombg27vppknENLGAKP/8R7DTSrpdF2XvpFqgEaaKaV3Cao+QBKkje9aL/lM5v0tGg2cN5eDKfMWOGFznLN2nQb4TlbQJHPqOySH5RUDbcLCgUeFenUIbTMYiBT11CiEWEONxxxx2+1sbLKx2fgEVDDU2mMhAMtteCJiRiBBZOOCDBhOrsZx8ZlXmUmbeEJfmyZQhiSnOJhZcooVY8w7gQB36b1VOLtOtlUfZeugUsaeJuwoQVCIgX6YTvRmsxGFQgVKI333yzF3wsbqzhLEhzBpdoJQACR35LUjbcPGha4328VgUm6oc0Jv8ALUn6dVmsVck+jmknpYWQzG0zuiEQmLFYMzZSg3hg0YRwjolKsqYOLYYQjk8WJIN9iBjzENvCnCRZo7AIty3WL1Erno2Qdr0syt5LN8AzpN+UeCNOCB8WIRUiLQQg/uGzJW1tgIjKh/1YX1ndBYY1j7GQCQOrOaRIuDwDsyoNfmc9G1oC5I2yE32JYqxYscIbTla+EUATQbaxj2PaSWkhJHNTW9KkMygA1oFNnxrNSBNLmrgUEjKwZTwbNKDmzmrCpIXD6CDXx3Lj+lhNWA2EwQBLUYsN8uJZCwpcsmDVSzPupd3wDHjmVICINk1TrDLEke4LRMheqzIxRFjOP//8PUbL6e8LB9nSQGwJG4FNswaLhEshw0K0Z0ZaY8Fa4UtCBY81Tx+oaD6UPVoOdK3RL0iLiIV1trGPY9pJ6fcIsWBoCtE5TYan1uQm6GhG6BAJMiH7KSyIHU0N6xzFSmIfgxGIABmY100QADIw62Dh8K4XCUQ4vIrCAEV4DfZhMRA+zbQkXMea1CF58USEwrgAzTOaaYTDPTCajAlv76EZWdcLwwzXy9xLJyGOVoMjFHSNWPMFAec3AxRYZKwjWvQfcn92DPmJSpR7ZIQcQUJwSE8gTTmPY1nneXM+C8+HY1knT3IuaV8kXNKSZ2XHYHHwLGlGG+G1gbzMQksnPE6UJ83YQeio5CgHVDg8X/IXeSarguJ5WtcVcH74m2fHtax1WgvyKoYQ+adupwtckBqWQmEZLsT2mziGsI8luT2NWuGwjwRICk9R8sKvBYJW73WTNONeWgmZhkGdRuE+sb5Jayy9ZlEkXJ4XlTYVedlnLeon7CJpBIwgWm1GVzhdQADJcGkiCLY/LcOxr2hGrBUO+xoRjrzwa9FMwWrGvbQSBIQ4Ngph8HoL99pMioRL2lL7SwR7D54ZebBVNEeqxYDHrOZmiKEQZUAEMbjIg61C/ghFYbC4yJDNtuaEyANLEBGk7zekmU1jCaEQoifpij5CIYQYKMgiFIWhj5ABh+SL6KK18CYBI972+lIIrzC1YvCpm6BpTLM4+Sqfmsai7SCC9NOQKXlVRbQPe6OA/tlQDBFACj8VU7NeUelGGCxhtJ93/sJ+QjWNRdvBEpQIdgbSnLRPvlplwjiQRRC4P16cznpVrxlICEUhsDokgp2DtE92SSAMsTwT7lNCKLoWPpHEc87MmTP9t+BFP2/KAyuHPrFWQfh80njBBRf475T5xMsEBcvjkksuaen1RffRc3OWcG2b74NPvmwekGa96IsvOptzhM95uF4RB6xl4kJ6UfDSjstL21bcb1HS3uynfwa3YThKxVsINTbODejcb8SNEg54EaJW5Sk+7KfPDc/qONng+2MccLBucefb6m6D9A2bwZRP8odBnkLU+W4axwUh5CnyNn3+PMt2lddmQj91q741rssiJEG5IN5H+CCdD9opuO2A65qnETqLbR6QZmFOIPjgH+cJCCKZqBZl4kJGDb+ZDMlL21bcbyPQKY3LK9KLTEnhu++++/p9EyJmOEEIwbOOFWaEFQcIhIPjC0D8qXz5j0AB6YEzC9KGtLAmIuGTlmRmwrDnxIf8HEtHeBKujfcj0hexQ/RwfWaTRLEfX4pglmO4WJwgjBfOR0KRajd8Z411y72FAwhA3EgL7hNfmTyD5DGxU/rJkfnIqHlzlpCByCAUAh4AGQY4l4yE2yn22Yg0YsNvU3I7DguIjE7m50EnsUwNdg41BOdQKMLakv1cj0yAa3kygrngSmJzjuC1hHsjfgb3wj0R33Cek6Jx4R65f/5TYEM4Ly9tw2sQHrV/uIQFP4wn12l2IcWCIsyk2zK8isydO9evcz9Jn36kBXHjXLxJU4vjuot4IobcK9Ya/81qwQUXz4vjGDU899xz/fmEz32T1sSD+2UfeYXfCFdy8iWsIdKVffZMGG00CyqMM1Y3ecEWnlk4akm8CJ948UzpGigK98r9py1WKZSBSgXPLYsXL65u2Q1pRIVFeuLxifV2tyi6ndKlA2uETIo4hRnJXOeQkWi+UWuTGUOLhsyLQJJhcTVFxsI1Eq9l8IB4YBxvx2EtsB2TmCZYsmnGcVb47RzEjsLIseHcH1gMCB/iRublWhTmWpBhTMiBph9xJBwKHPHn2kXjgsDRxOF/ssldK23DaxAvwrCFeworC+KJaBJPBLnZ86BwT1io9cL55BEEiCbK/PnzvVstLDTumf/kEZ4Z94FbLQQHi4Z0MrEgTbDuSCMqEPIf/+k+IGyeVRJz7T979mxvRfGswmdsINJYu+YujXyIizGgwkL8EBXihYdlwrSKqhbcK+clYVvStVsRSK+08BBu4k4ZI68yfQJ5J1mBxQr5hzxTl5mQN2cJmZTMQdOSQkgmsqYGcGGbC4S+JX7z3zKAWWlEjhqOQkIY/DcRyCIMmwyL0BFPwiRD0Ky0fWSOLBAUFjI6Fp1lMH4TFgWPjET8uN+0ZkZWXLBGsHj4j8gnyUvbEAophZ2Fe+E3/hSBeGJNWzxpYhNmWn9vvXA9E+t6QER57rNmzfIVZ2h1h5DeVCbh8yJfWT4hHjwDsHQw+M1zSEJFhOWE5UraYDHT75wF6UlLgma/WVJsQ8wZcLGFNGcpCvkjzAOss62ZkI95TlSMdPVQuWA1h45sY4Y8Qv6pSwjJSBTutDlLgEJPwpPB6S8KC3KYcclUtg5hxmV7aHFQ44Udo2kkw+Y3gkrmRHgsEwO/syDT0++DCHJdLAzg+jQvwkJJ5k2LV1ZcalErbZOQ1liQvBxq90d8KKStnAeF9KOQJQs+23juQHySIh4KE83+W265xQ+00BxNu0/SLel1hILN9nrgXBMB4kdFhbWZVclSgZB+CCeWqsH1efZYl7bceuutmU5F0+D6VM60AlhYt2fYLAiPvGCWK5UPRkqyyyJ2SgshGclqYxKZGgbLw/r32Ed/D80SEp+mTD1QYMJCQ2GoN/OnFabk7xCssnvuucfHHzEy4UPYKBghpEco5o1QK22TEBcqHIQz/MSK+CDYrZwHhTShgkBsTWBJU0Z8TTBoSoL101n/ICDgVDbElXhRSC0cwkZQAYsW68vEi+0MpNTTfAQqo/POO28P6xiLECFKg6YklhSCGYJVShhUBHafdD8k80ctuH+eMUuz8lEI3SaEG+YPnk/ZeA50Sgsh4kRfA5nTwGohwYGMyjq1JQ8gqxDXggJjtTSZl8xP5qsHmlZkWOJCWDRl62kmEg4F2MSKey06z0kIBT1NiGulbRI6/BGRZLqQ9oSBsFAJkJZYuUUs0jIghFhAvEN42WWX+ffvEJSw8sNSxUKcM2eO/22FneMQfvrpOJ/7NMvbLMRp06b5+GOxIbg0PxlMwJJM9q8WBRGgoiNsmuXEi2Y5lUUS+heJFxb35Zdf7hfiCogf8cJaZBv3QZyw6MuCSIVC1UyIDxWq9dMjgKRtMyvFgUBd3xqTORhsIFOTsGQuajQKLIWNgQmr0SmU1OYLFizwGZ8MSLMPsBQI3zIhD4hCyzeEHEetT2bkPB4cfXJhGFnrBh3h9957r89kCBhxRhzIGMSTuNHHFkJhW7hwYWbGpL8Ti5eCgJhhMRJGmbggpFhDFBwKZUhe2obhkqaIJsdZc4quBK4BFk+EhKYRVo31IdYD4YQCnYRrkCZht4HBM2VJ28c9gVlVITwjE07O5xoU7LRw6oE8Slj1iJfRinhlQXdEaMlRPpNdE+RJKqX//u//rm7pGzCxwUbOp7VGZdXsZniroQyE/fFd4XSBDECik5hpGYkMTsawjFyGsMDbg6cgNgJxDeOJENEcs4GQMti9ZxX8ooQFPaRW2hbFwiHt6nkOIbWEULSeIkKYRyNlshtopRCWbhobFFKsm6yCikg0I8EpgI2KIIJAXw8WEk1Z+qqwyrAM68HuvVELICt9aqVtUSycZj0HwhOdgbRPlgOrLIvSrDLZCbhP7rdV1C2ErQSBocnZLEhE+nOoUegbJEPQhExrjol0sF6bIf6iPKQ5fao8gxBrlQz0Cor74z5bKYTyRygKQ9ODDJkskKK1YMXRrLV+9xD6hWk5NNp66GYQQBZ7q8CQY1YhRPTIMasQQjQRWYSiMHxlQ1OMvkIh2gWv/dAsTr77q6axaDsIIBmN1zfIbEK0CwaLGOjkTY+wn1BNY9F26Iynw14iKNoNeY7v51s5IKRcLQpBJuR9TCE6AXlPQiiEEC2kLiHk8zS+1GBhnXZ2vdYCXp5Df4Uhto/PiPAYovfXuhMcOjTb8asQ7aQuIeSDf5yllp3XIw3znZeG7aOjvpvm6hC7wXEGzjKKemYWohupu2mM55SseT3oVMf9Od/2Jq1FOj4Ziba5Q0Ky9rHdChpWYbPmJhGNwXOhRYB3HCF6mab0EfItoIkdQpQ1ZwkwtI0wIaCIlDnchKx9FDgE1dZbMTeJKI9NY8D7hUL0MnULId89suCaKZzXg+Zr1pwlHIslZ3OHYEnaR/x5+5Ighs2Ym0TUD8+Lyok0FqLXqVsIaXrSLErO6wEIU9qcJQhd1twhefuS4I7I+gs5nt9YogyqFA1DNAZWuM0oJ0SvglGFdtQthFnzemCVZc1ZYl40QszRZN6+oiCISVc9rXTdEyt0OdBnS5cHM6IhilRkrAvRS6BbaE9T+ghDaC7zOUzanCVsC+f8oPDYvLN5+4rSrLlJRD60APAeThcEC1MA8HkT60L0Ik0XQvoFaZriap8ltPLwZUffH01q5lCgeU1fXq19RUF4sVQZwaZZjpCWDUPUhmdFxWUL3Q+kPetC9CItc7qAAJrZmYR2Oc3etE9m8vYVgaZweC7CWu/cJGI35IUy82MI0Wy6cs6SWmA1pIkgIJBZQpe3rxYMyjRzbhKxGyqYcBBKiHZC3mtlf3/LhLATkFiam6Q1kAlJR4mhaDfkOfJeK4VQ/ghFYWKYH0N0Hwggi+YsEUKIBHLMKoQQTUQWoSiMDYCVfdFdiEawL8eSH1yoaSzajnVW4+SiXt+TQtQDgyVMGEbfdCiGahqLtoMlKBEUnYA8R97Leh2vGUgIRSFoDksERacg77WyS0ZCKBoCn5FnnXWWmzlzpv+sMWyq1IJmDn0/wLfll1xySf9vIdpJXULIZ2vNmrPEQO2z2vatmLOEePP1SRp8mcJ8KUUIC3PePZQlby6XbgHRO+ecc9yaNWv8i+x4HMITTdG0I63GjBnj13kJ/oEHHmhp80eILOoSwmbOWWIgpKG36pBWzFnCtXD5nwTRRdixUIqAP0YT1Lx7KAvXp1+km0HIcLVGXsDxwgsvvOAWLFjgJk2a5CsHFtKHe8E/JY407KVYBJCvf/jPc6CT24TfzuPzSK5heWvcuHH9FS9wHJVWCNcgrKJhCAF1N43rnbOEdbaxj0xJpk0DD8iEwfEc04o5S7Dgkm66iBujTyFZccbdF/HkP9sNixv++kIxC8PBaiKuBmGG8e52cJlGnJmOIcTyBaLG/TFVAiLI996MPF9wwQXeVdvGjRv9SCD/OZ5jmQQK7DyeM+GTZvg65Dx+I7SkUXiOQX4gnYuGITrDkUce6WbMmJG6sK/d1C2EIQxvk/mADJg3ZwmFgm0UDARjypQp1T27QVys8BA2BY6MDKw3a84SmnIWLhB3HgJWbghxQYgJkzjb9WjOMaTPfwQACMPixjrdB5Y2du+EQ4E888wz+0U1jDfi3SzLslWQ7ljqabCd+wPSgNcUsBZpQaxatcqLEz4NqXD4n+YUg3RhUiiOx/s54fCfcHhuRXxVNiMM0RpWr16d6hGKbexrN3ULIRmdBdHC+ik6ZwkLXqt5d2fp0qX+PDKoYW7+OSbLzT4ZvBlzlnBt4mYWJU1cBCz8lpb40lymQCHsxNksSeKHVcN/88WH6Fncli1b5o9FNAiH+Fk47COtED32IbAW77z5WroFXnINLfEQtrMf+E9FYSB6WRVTCOdZVwhpYeEBv60CyaMZYYjWQTkJfViyzrZOUHdOoAlHXwsiWGbOEppBoQcTrC/LrAgiFiLHZIkghBmcsPjNuQgW54Xh1wqHjn5r1mMdJq1B4oyQMTKKw1gWxDb5AbgRxg1oDiKGdu+hwPHg2c5SJt7dAPGjIkz6KOReqVzMyuO5hILDS9mhIDUC6WV5y5C49Q48Pyp/ukdYWA/LQDupO9c0a86SJISLhRT2ORaFApZ01ZP8nQThQwC5JoUYizCEOCNgjGjactddd3kBLQPhEH4IacH2tHRJHttt8Lyp/KggrFIgradOneqbntbPilDRFAZEkW4Naz0QhjWh64FKBqyvz/oHRe9A3qeVxMJ6p2h69UnGpimEtcONhXOWIDJYi4glcCyvX1gtzvH0tdGnRN8e4lQGwsdCKTNnCdejKUznedIaBO6DeFDYEVoKGtYw4QOFuZbYQtq90xSnmcw1wn1YiL3Qf4UQ0v/GO4SXXXaZu/jii316PvTQQ9Uj+sSKtLvwwgvd7NmzfdOfc2DFihV+sGPatGn+dz2QV2h5zJkzx//uZGES9UH3EksnQHsoy0PGjRv32eq2vUDQ0oSEWj1s0oZgCVDAsQIYSaUgUOixEBENTODJkyd7i49BBfoSKTxEhuPpU+QcOtxpVlvHqe0LjzMYgcUK4TyaZMTPrBDCIU7JpibH8K0ipjjxIj6Y5qwjfMQZkbI4I5QcQ7hcg/5PQETpHkC4KOTJuPGb7cTBwmFAhntn0iPC4hqkNemCiNO0xApNi3enII7hCLhB/BFEni/9p6GlzLNC6O6++26/n5ZD2BHO/dkACpWMda+Qr8KuFtKN8w3SnmcDpBPHWlrSx8QzLROG6A0oa2HXB88eo8EwQyU0vvIgr1LW0Z+OzFlCZLGiEC6OaSaEGw520I9JU8yaY/VicSax0+6JQp+2PUnevfOQaRKH8e8WuO+yFjr3OWvWLHfzzTdXtwhRPxgFYZdRTzhdoKBnCQM1NqZws0UQkWnVnCUW56x7KiKCkHfvbOtGEQSEkLiXgXMYuReiUch75KdW0TIh7AQkluYsaQ1YvGUrL46lH1CIRiAf0bVBHmwV8kcoCkPTg0qllRlSiCS0tuhqo98+RI5ZhRDRI8esQgjRRGQRiprYwFe3v+TdLdCpT/dB1scDSs9yZKWnmsaibVBoeQ2GdwgZlRe1sTcDeAMgWXiVnuXJSk81jUXbwHJRoS0HaUWapb1SpfQsT156NgsJociF5psKbXlIs7Smr9KzPrLSs1nU9YmdiAfe4aI2DqFpx+eAfHPNi+u88W8vgpNh2c5+PiXk/S+aLGlwHB6qw69+aNpwLp9Xcj6fSGb5Pex2SBPuJ0TpWT/J9GzGJ3Z8cIHONWQR8o0vzhGS0I63d81Q8aJt9iLwyVw4Xwrf8raqhi0T9/CecfzQ7DlWugk8zJAp8T7EN97Tpk3rv1e+6qHyxPMQ3/biVIOCnoTvqflu2zyPG+aslrB5GRuHCsn3xwYaSs/OU7cQIj4IITVQskMYJwTUbMBxzfS2TFg4NbD5UrjOCSecUN3bXMrEPbxnalwcOLSyT6NTkCZ0XuNggfvkGWCh8B0yBY7CuHjxYv8hO/twqJCczInjqMRIoyQUaBwnEDaWDb4uB3KrROnZHdQthCQwD4cRl9AUZZ2HyH+stSSIJp5fqOkYsSEjGNR0ti8cDUrCdTGL8SDCt6zh9QmPcAmD65NJjKzww3PIZGmWHNtsAiCDKQgIP3nPbAtr5qzw+U9Gx7xHSJPzr3QjFFomaOI/EF/cbNFkwxJmdC9suuHhJVnwqLgolLgfS8LxvKlAmtFswT1Z2nHthmZl2vwaLOyrF6Vnc9OzXuoWQlxS4VKJJXSiSnsbM5//CFYIBT9rPhP24eQTK4p9uG/KE0MD0Qm/f82aXyQv/Ly5RAx+I2Yh1ixP3nPy2KzwWRBmMir+Cuk7Cudf6Xa4d7oocK/FayHEn3QI4XfYJ0ZBJG2wgNKgYqNyuOKKK7yfQyx/xKDTkM/DvjeDbaFrsUZQevbYnCXUWogN1iC1C5aWdVrS0UtC8z9Z8yBCWfOZECYCSSKwj+MQrDQQMGoNhIiOYJoMgFVGLZo2v0hW+JxDTZk2l0hR8u65VviIIU0X0pJMS8Ymnr0A/afci80zQWd1Mu78plAbCD1eyzkvCWlB/xhNvF/84hfu17/+ta8oyjyLVsJ9hs+Xdbv3ZqD07LE5S+gLo2ZCjOgjRASKmrMU9LT5TDD/6SiePn26f7jW35YGwkLfHZYUiWceThBjasu0+UWywuccmtmhVUmYJuyNUit8MrtlYppH9hZ9t8MIJZUOUxcYWMRsC+PPs2I74FKf50YrwJ4D6cA6cCzpxKAAaUHz8JlnnvF5rBsgTogK8WJh3Zq0jaL07ME5S2gKU7hp5rGwjhCaqGXBg6GfjAeDRRbOZwJ4FGY+EPZj7VF7pYFFifXEQu1mGQVBIS5Z84ukhc85yVoX6zGthk3eHzVuLcqE3ytYtwIuzkKBx1LBsrU3CcgbpLF57KYCmD9/vp+ljwWv0lRQrAPrnIMVDaQv17GC3w3w3Jo9x4bSswfnLKGGYkGEECQWmntYMjbCysNMG+LnofAQeIDcdDjIQU2GSLKdpivNSI7Pg341+uRsFI1weehYgMQH4aKmRSizws+bSyTEmiM2CGId0EbWPRcNv1dAxLHouZ9LL73UXX755X4hPYDKjUqRfRdddJEvnHQZAM+EZ2QL23kerAMFl/lOaM7h2fqSSy7xLQ/yWDdBC6hZ/WxKz87OWWKU/taYkU0KPEIYQk2F2GDe8lAZzkekUHoexB133OEFiX4QEzgeGOLJqBmiQn8fQmYixreADPuHXHDBBW7hwoX9CcfxDD4wLwYPmT5HBI8waCbTf0jmyQvfzkHsuDc6q2lGk0kt7oAlzOgu5jvHkBZ33nmnz3xZ9wxFw4fzzz/fWwadzhgGaWUWRRlIe+43tHDKwPlcm7TtVRCmZGtA6Vk/yfTsGacLCF9awiMAPNC0fdwoImUWWD1wPoKT9uCzwrdzamU2jmPJOibrnouG323UW3BFc4VQtEYI0TdaZ3X1ERYlq/ZBDLL2kVEaEUHAYsOiSrtGVvh2Ti2R4ri8Y7Luq2j43QbpRdxFOUgz0i6J0rM+stKzUSiPlNmWCqHofbBwe1HAOwlpxSgoaZdE6VmevPRsFvJHKGpCkwMrupUZcSCBhUH3T9Zgn9KzHFnpKcesQojokWNWIYRoIrIIRWFskCs5EipEK2GQhG4EmschahqLtoMI8voP76PxKpAQ7cLeuOA94VAM1TQWbQdLUCIoOgF5jrxHHmwVEkJRCHsRXeyNFVTROkjjVnbJSAhFQ/CJJN5+8HWHG/nw+3EyLvs6CU2pVr6mgp9JvgOeNm23e/1WgkclvMuEC8+Az1v5lpg4dEO69xp1C+G+Bx3ujjjpQjd2yv9yo990sTtg1O6+xMFDhlb2XVT91RkG71Npxg1pvAYZvM8wN2rCWW7M6W9xR516pRsx9tTCllGz4tCt0D+D+OHdB08/fNfN99bmBIP+GlxFdRL6i1rpdop7xYnB7bff3tKmm0F6cj3zOMPC9+04M+EZEIduSPdeoy4h3P+QMW70ybPdpldfcC89cYfbuPZpd+hx09xBo0/0+wcNHuL2G9F+d9shhx53jjvw0AnVX/XDfVaUz7207Ha37ukF/t5Hjp9a3ZtPs+LQrSAyuFPDLRTuz3Bvdt9993k/kyHmgxJPQOFLsVhruJhCPHHaYRUMVg3OLbC28LGHN6GsY4F1thEfXFohBIAA4pSX/3hpBjuWcMJj065Jcxc3+ISb5m+TgUS8EeFUA5+AaWGE1+MYa97ZsTjrIHybBgL3cBxLJ34WpHXodYZRVe7DnBwnybpnsZu6UgTRe+mJee71F5e5rRtfcRteesqtWXp7RSDO9KJhDD3gEHfosef47UOGHVDdWskEFUtpxNhT3GETp7uDjjzJPyjAejpk3Oluv4NHu8OOP9fts++BmcfCoEGDvfgSn4OPepMXYDjwsGPdsAMP9f8PPupkvy3r2LRrGhyD5btuxX1u26bX3JYNL7u1T97ptm56pXpEuTgMJBA3ClTSnRhux+bOnVv91VfgEQCOQwTMaSjbaU4jcHgNxzWZCSj7ED3Ow2Uao4ZZxwKzwGGdMvqHQwOaqcBnWYw28h/xAI7FWsIlPMdi0ULaNZk/A5HhWLwHJcUQJwAWPpMiJcPgXIsbYSCM5557rk83OxaBJm0QPvZRUfB70qRJpaw6wkPk0si6505CWibnKrElrdJpNaWFcOj+I3zhxxoM2fL6GvfsvT9grNv/RhBGHDXJbVq/yjeVj5x8GarhhWfM6f/LNxvfWPdcn4V1TJ+FNXjwPm7EuFPdwWMmu83r++YzyDoWDj9xZmXbWB8X4nXkpEv89u2bX3M7t21y2yvihVCDP3bEUZVjV7phFYGmOQ/Ja+7asfvD7l07d7htb7zqRlWuiSDD9i0b3YY1u/25ZYWbFoeBBNZS0kVaGhR6fOohYPxHzBAEmnC4MKNpR9Map7nmNRw4D2sTK5PXIrKOxeJj4Viugf89mugIA+LEufxft26dPw4h4FhEgWOJj/mYDK9JhYtws841cYBK+CFYYxa+VQhhGNwnYS9atMhfj/vnvq2gcywu25iZjnsizvzHRRvnY1mmwVSx+BdkQTzzqHXPnYK0JD5J2JZM53ZQWgix7BCDWiCE61bcWxGwZ93LTy/0YrhP5VyEZtWSX7hXnrnfvfHK8279yiVezAxElmYoVibXyTp22IGj3LDhh1aOva3vGssXVM5Z7oUWy2371jfclo0vu82vveiPHXrACLemYsUiqGufutv3/e17UF9hCq+5Y/uefgBXP/rLStyHubFnvt0ddeoV3vozqzQv3GQcBhpYOxSoWthL2Aa/rXlIIcVawdpj0iKEwSD80DFB1rEUcgQp9OiCO/q0/jqORcDxaWmLORqG8JqIPOEgNkwrEU5QlkcYBs1eLOTwPrAU2Q4ca/HkGH4b/A7TI4TuB4SZhfU8at1zJ+npOUt27djqC3stdm7f6nbu2O3uit8ICiAgNtBy+PHneyEyOAdLzMg6dtgBI93WDWv3KAA01UOLzuDYIUP3d2NOu8oPerDss+9wN3S/4X5/8pohO7ZtrgjcXe65e29yrz73oBt+xEQ3asKb/b5a4Q5kaBbSjEsWKLYhHLVgpJM+K5zU4pgWZ7RZ5B2LePCidxE4lsKGE19bbr31Vm+RpYEFesstt/g5cWh2lp0/Oy1uVB6h4NUDzXFbeMk4j7L33E4ouz07ZwnNPKzCofvt6VySvrXRb+obWMiDPjf6015b9Zh74aGfuzVLb6vu2Zu8YxEvmsxF4NitFQtt9SNz+5fnF/3IbVzbN+lTFoS/7/C+fppdu3b2DQ4tu8P3+0G94Q4EsFhoxvGaBk1AoNBPmTLFNxdrwTmMdtJkJay8wYG8Y2mSYmEhlsCxuLQ3a4rjbYAGawzLEvHGMgUGNcxCDaEPFPHFYqNpTJPN7rMoxA2LzOJGPBi4aWfTr8w9dwLStyfnLEEQaKLSN4b1A0OG7ucOm3iu21FpClYO8Nuy2GfYgX7ggeYiVtiBh6d38ELesZvXr6pYiyO9WAJxGTvlbf2DFRxPUxysecwxWKaDKn/Et5ZlO7jSzD7ylDkVMdw9Gjf88OPcts19He+1wg3jMBBBCLEsaK5edtll/j02anb6wmqBsCBSiBbNzzyrLu9YLB764Hi/jnjQ2c40EhwPZs0xgIIQhMfOnj3bC2yaVcV9YL1xDMfSr8f9lsHiRmVBk5S42esu7aLMPXcKs247SZ3fGg9yh1QHGBA++uU2rHnSrXv6Hi+UCOPYM652z97z/erxzosU/XCIyBEnz3JDvYgOqojJaj9i+/wDP9nrPEQt61igv5CR3p3btrjBw/Zz65bf4za+3GeN+fccT77IbatYsKsf/VXfsROneysOi/b11Y+7V559IDWuIQjfqAln91ug27ds6LuPikBDVriQjEMvQ6HGusmCfigKnQlQURA1LIEi1kDesfTbEgcKeFocGIiw82odG2L9oGZN1UOZ67WKbohDo3TvnCWVxEVIECIEsAyct2vn9oqA1O4vyTuWB4wA0Ze3dz8fo9RD+vsNOXbw0P0r1lslvnsdm0PlPD/QUzmH6yTJD3fPOPQqtYRQiFbTSiEs3TTeg4o1uGPrptIiCAhKERGEvGPpXGV0OV3Ydu0hQBxL872UCEL1GmkiCPnh7hmHXgUh7FRHthC+nFfyYKtoTAhFNNC0pB+nV5tVonchz9FnSx5sNliQhCt/hKIwND3oK2tFhhQiC/p26au10X9DjlmFENEjx6xCCNFEZBGKwvDZGa9fdPqdLxEXvPbDq1PJF9rVNBZtBxFkoa+G14WEKAri1AgMllABI4ShGKppLNoOGVEiKDoB4oZFSB5sFRJCUQiawxJB0SkQw1Z2yUgIRV0girzlj5WYXPR6jSgCPhFxqXbhhRf6hfVO+Umsu48Qjx/M14BXC5QaZ5jmnJICggdh2uCdggJJ30KRb1jzwANJsmAzZwRvufPgFixY4EWh0/fbavDAErrcwotK6OUlhHwwb948/xJsCJ6Rk15PcL2Ez756SXvOFCa8P+NBhn5NHC+Yxxeuf+aZZ7p77rnH/+4EzcqbvUJaHmFqAqYlwP8gXoUAR7S4OsMp7fLly/22EJxFhM57O95HaHMycANkZLyD4MrcJslBGMz1UKdgPogw0eqF+2BODsTPFibKoYBx72TmbrjfdkNhTsvggFt4RJKZ1ULYjgcXc7vE0qgnFioqMrPBM7cJpfDKTAVNXrU5S4hz1twe7SIZ59igokIE8Y2I9yIMKRbW2ca+dluGdQkhokcmxqU4GZnaFtdLzNUQ9iNREBAktjMEblCImEyGcMgQdg6WFxkWUbGJfrKOBdbZxj4SzwomU0riIID/bIesY9OumYR7ZM4LW7AGOT/rYWVdKyZIm7Q5N0g/HIXaYl5dSCOeA6KFNWeWI8+HPMTzpKbnGVleIo15bvy3+ToQGQQQ79JcC6sBR65Y7GHesfDYHj5zOuWxSkw87RyLByKKz0VGL7OOBbsf4oP1Y3kgLc7hvYfHpl1zIMC9Ygnas8f7t3kAZxv7OKadlC6hiBsP3MxZg3kb8B5sH+bzEGlW0+xhnWYk57GOB2MyOk0orEuEEsgAiB5NbgoJYWUdC8yMxjbiQrzILIDFxggT/83i4FgKJ44qOZZMB8lrFm2ucB6ZOY2saw1EeC5YX+GSzBtFwGcf1pw5QD3//PN9GpNfEBueO9din00+xLPFkrCKyiaUoqkTQnz+53/+Z4+8aeGRt5gDxPImfVVUvlTuxIdJlOwcq9R5rpB1LNj9EBdE1yatSsYZODacXCmc4Cq85kBpSuMo1vIIAkhlwWJiyD6OaSelhZBakLZ4LchYKDsZYdmyZT7DUZPzMKmxaWLycGl2hk0VMjLWJpmLDJN1LBmGBUuUayxdutRnJDKPzS7Gf8SN4+jfIlwyP8cSH0vs8JppfufoU5o2bZpfWM+j1rUGGvQVc2/hgiBlgejgHJQFsQPOwUpi/g2eAX03WN1WMHimbKPp9OCDD/prIkBUvnRR8J/8gWVH5VcLnjf5hvAIl+fDueRNKnPr7iH/ImYGeZr8iJXJdbOOtXTAEuUaixcv3mNCqTDOll6Ey71zLPGhgofwmq18fSR2SgshGZRMWAuOC2swBIYHDDx4rCasvWSTJXle1rFYWtSooWsoMltarcmxiDA1L556WbAsrKmRvGYSCg1efllqDYjUutZAg4GIsP+UheeQBeLAjHQsNvcIwkaFxQCCgUiwHcg79nzMHZPlpRCOK5I3OY4wjPA8hIlnRh8nlR6iaSTzSdaxdj9h3iSd0vIYxyLCeLDGgzQLecgGpmrlzV6ESsCEnoqCmfVYWAf2cUw7KS2EjARS0JMFm4dJEzAUtTR48PSdMTJETZfn1j3vWDJHkUwPHItoPvDAA/3LXXfd5ZtxRaAmtoVCk0ej1+o1yLQ061joD6V5mDW/LpCGWOu2AIU9+Sz5HYpVEWgBkC8RkhC2Yc3Xypt0Z5CHGbFk1DucJCpJ3rHEm5ZTETgW0SSP2PKrX/3K978PVKgU6O6wZ44AmgiyjX0c005KCyG1Nh3RWGnWyUzk6cQmY4e1YBrWfLH+OAY0ssg7lr5HrEWzGjiWviOrlYmnZUbOp8lKgSDjUSCIL02VZtPOa3UDpL81BZOVY1HoQiAcxAUIh/5Xmoq14DlbPmSdJirWuFlUVNr0HdMcrZU3uS59d1ij5DcbaEsj71i6asL7IS7MtRLmTYuz3TvHUMmSX4hvmsU7UKDsYtzQF0r3B8+IhXW2sa+RV6rqobQQAkKIhUNzlQlp6Pcho9EXWAsyDhnS+tySlkBI3rGIDP0zjPwRDzI/0z2SyYDmGYM1ZCoyWHgsYSGwtay7emjntboBKhvLyHnPMg/SBoufZiZNQ5qJpCEWXi2wHBhptQEGhBDrgoGMOXPm9E8oVatLA+jrI//Qf3nxxRfnWnV5x5I37X6IB/eTnFDK4sy90+VCJU4TuxsnV2oFWNI8EybFIh1YWGdb2juEraYhpwvUXmR+Hrw95KJwHudQm9Yi71jiQCYkQ6XFAUvMzrNjiW+R6zZCO6/VDqj4zMqCvBeqgWfxm9/8plQTjzTDUqJlUTY/hc8ZauWLPDiPsIo8t7xja91PMm9SmRDfItftJbLySFmoIMLBq2a+UC3vM6IQdF6TySiwwH8Ksv1OgiVPga7VHBUDn2YIIRUJ+YkuGKPjX5aI+DDryoSN/1i7bEtb2CcRFM0AEaSrgDzYKmQRisLQD2yjvkK0C7oMEMHkYJyaxkKI6GmGEKJvjNyraSyEiBbre5RFKApD3x+ZZiC/4ya6D/qbGZhLvp6lprFoO4gg/TT012SNFAvRChh0o1+a/ulQDDVqLNoOlqBEUHQC8hx5jzzYKiSEohA0hyWColOQ91rZJaOmsSgE/TR8Qx1CM4UP5HG4QKcz3wbjfcbeH+QTM8u8NGv4ZBJXauFXFuExxmOPPea/2Tbwx4dFwGd3adTaLwYGfHIZ5pWON41xooijVRbW+eC8FdYCzlIbdatO/MLPckLwbMM16qEZcet1+Jaa5853tWQqMiUOJgwEEmFE2PjUjudgDleN8Bhb+JTKIHyEjvROe6G21n4hilCXEOJE0+bxwLkBGRzLoNmYb79GIK5pbr/5bpbaIOmyqSjNiFsvg5jhXQUHtDg14BM8XI4lHSXgkgzrDkcITJhErY1whdgxtmB9GuQtwuZ8nleSWvuFKELdfYTU2mRgmjt41ghdZFFLkymz5gdBRHBBjgeOcBSI42iKY1VgKYTUChPB4zxzbxSCOR1+owiERaEMCa+BhUHYRj1xG8jQvEX08D9oz5D0xIVSHngIwstIUUhzKlvzJpSk1n7RnZAH8FyVtpTJH82iKSWWgh/2+9SaH4QMi78xLKpwPg/a9vhm4zyaWYibUStMhAtrIm1kicKJUBkIHIlN4QnhGjga5RoIauh1uJ64DXSYcQwRNLf7PAcqhTxwSZa0pHHjhr8+lnPPPbe6ta8PkkoHa4+3/zkvnAag1n7RvdCfjCuzJGwr4oey2dQthIgBYoIFNHny5H5RKTI/iM1lgiVJxmU/5yEidHizj74iE9ciYebNOULi0p9nlgvNKYQ49PnGNRA6uwa+FRFV7rORuA1kSD/m2Jg7d66/b8sLeSBWyWfEXCXz58/3C+sGrr54f4xwEVm+dQ6tvlr7RXeDDmC8GKyzrRPULYSIBlYRGY8bMNfaCAaZvcj8IObBBAuN82hqhR5LrL+pTJhpsB9/ejYZENZh0hrkGjT1Q8uW+2J7I3EbqFCpmFVMulBB4GA0tLzT4BkkZ7lDzGwJKyfLW1Q0LKwjekat/aK7Id9gXNDHzMJ6WMbaSd1CyEAJFh0LVpP1pyFI9czZwXlmsRlYVlBvmCEIH4UUC45wk67AuYZdzyA+bG913HoRnjdN2tDyRYTI0GmQfvQJc0yRWp8KhtYCFqeNJjNnDZUazeFa+0VvQPmhNcXCeqdouI8QQWHghD46oFZGbLCIyJT0GRWZs4PzyNhYmkBGt5mu6g0zxNyf07mftAaB+wivTx8hTWiau62OWy/CwAhTa06bNs337eEWH2uPiiAEL9aXX36570ckzZi9LjlIlQaCySs3oYUO9PdiCdbaL3oHaw10krpeqGYOhoULF/ZHHiFgYIHOc8SG/jhGUBEGmo0ID/MQYBVQcJgP1qCTnRnACAvLkvNYJ4NTYBAoMnyZMEOIK31P1DaMbDMlKIWRcCi4NO+wJsCuYd/VMsJprubridtAgnvjOadBpUGahM1aIZoN3VFhq60nnC5gGSEmFKAyJi83ws2mFap6wyyDXQMxTFobnY5bJ8kTQiHaQSuFsOGmcRZ0emI9lRWFPMui3jDLYNdIiiB0Om6dBCHsVEe2EOQ98mCraJkQioEFfZ5ZFYQQrYQ8xyBcK/vd5XRBFIamB10GA30gSHQXtLIYC0h+NSbHrEKI6JFjViGEaAIIJy0cCaEQIlrof6TpLSEUQkSPhFAUAq8xOLXA00uRhWM5R4heQEIoCsFosX1mWGTh2KSXGSG6FQmhKAxfzxSlzLFCdJq6hRCvIwxTM28Fjkj53rYovBOU9S4ac4yw38C9EuHzv1kQFp5Tmvk+XHIeF4bli4hBK+IihChHXUKI6FHY8ciMDzH6g3BmgKPMIuCmH88uaeAEgSFtwIHBlClTvEurZvY34cCTeDfzczjiHc7jgkMH3E7VohVxEUKUoy4hRMjw/YbnFdxb4QGalxOPP/74fiuI/1hFeGXBZZKJGx5g+Hif/2zPgo+rsQR5aZLOdyMrXCyqcO4SLK2s+VE4B9f6YOelHQfs56Vym6uEFzjpA0sjnMcFjzbmCBYIEy/KxDu0FtPiYvfAm/Q4crDzwpdHhRDNo7QQIhgU4qRjU2YSmzdvXv+H+VnzeGDZ4biA/whHGogDFie+ABHCkKJzlwC/ETHiinUZHosY2XrWcUDzH+HjegghYs9AQC1IBxM7BI4uBMSde8Ivn83klhYXuwfCwPM11iLnHXvssRJDIVpAaSHEQuFTFoPCzdwltvAbiw+LLG0eD1zp8PE+/02wkuA8lWOTk7jkhQsICfts7hJ+p82PkiTrOAQQh6s0XW1fntMBLDgW4ol1aZPTIGTM/UuzGUGlCZ3VpxreA0JKPFjnPMLgvoUQzaW0EOIKJ2w6UnARIhaab1hUWGr8r3ceD0QMkcP6I3yjVrhJX4Dhb3Pjg3WWJOs4RBfBNisX+J0FzVksWUQQC/nJJ5+s7nFeXLkfLEP6U81aTBLGhQqH7ofp06d7KzWrX1UI0RilhRB3OIiRiQ/NXEQLa4fCbT75GpnHgxnkrP8RUTEaDbcsiBIWcEjydwiu65nEHMsN79ZmPWJZUkngRp599K8WBTHlHjmXPlGazkKI5lJaCCncNO2wbkwMsRCxchAkxKPWPB6EkScoZoEhsAwc2KBDu+cHoc8Qq5CBHa5B/5w1w8tAc5k+UeKPmIeT4eeBBYyAcg5NY5rFSVdEQojGKS2EwNSd9JnRNGXOESbltuYssE6/mr1nyJwiCIF9acDrJQxO8GpMHggA1pMNUNQKt9lwfaw8hJjrMcjBfZcFEUPciS9L2LWQB/fGsTSNSWuE+JlnnqnuFUI0i4b8EWKRUVCxztIGEdiP5cd+RCUJVlba9lrUCreZcJ3QPT99gAyC2EBIGUgr0qlsnBkw4Z5bJfhFoM+T50U8ioDwc5/1WNBCFKFr/BGS2RGJNBEE9ufN41GviNUKt1lQ6PlShOYpAxW8Y0h/X3KC8qIgZPXEGcHvpAgCXQTEnbgUWTiWc4ToBRoSwoEOgrto0SLfRMWyQYyYerTTotQJsGbt7YCiS9EuACE6jYSwBogeJjjvGfIfS1QIMbCQEAohokdCKISIHgmhECJ6JIRCiGjBgYv3YlX9LYQQ0cHXY3y+KiEUQkSPhFAIET0SQiFE9EgIhRDRIyEUQkRPae8z5jggz5+gEEI0Cxy74Pko+e16M73PlBJCRNDm5SjqjkkIIRoB5yeIHEsohh1zw4UlKBEUQrQT9AbdqceFXVFKCSHNYYmgEKLdoDut7I7TYIkQInokhF0Icx6fc845btasWX6+EuaL7ibop6lnwizma2GOm3BhHphGKBKXE044wU82liQ8l3XSXMSJhLDLQPQokEzqft999/kOYaYLmDBhQvWIzsMcy3yoXpbDDjvMT0/KBPa25M0TXYRacaHznMm/SL9k0yo8l6YX8RNxMqSSET5bXd8Lc1FvMHrDnMaidTAjIHMfM68z3rCZx5kPw6dOneq9ZAOFm4LNwpSfHMOzwbphfhVeN2CaU6wthMY6mWudxzrnsR1hmDhxon9rgOlTmbwJEA4WtmFFEbescJMwR/Vjjz3m42SjgDbfTRgGU7YSBvvy7iktLkmoWNjPPvKuHZM8l+txv5bGiGba/QMd97aPeDcq5qIYlIdwjIJnRn4zmCuH/UWny2X6YeYgQudkEXYRCAAPkuH8EKYD/dnPftYvLja1JzPpcQ7NZ0A0aAZSSHnIFGDbB3nnIVKca1OP0ixHIFatWuUz1uTJk/2xTLpPhmSifxOHrHDLQBhMkEUYTPo0Y8YMLzJ595QWlyTjx4/33kWwrFk38s7lmln3z76ZM2f6Qsc+xHnMmDF+n+hdJIRdBJbGpk2bqr/6+q2wOmzhNxPeIzZMIkVBZN5lttOvCBRU3o9i3wMPPOBrvCLnIcDsY/J+4nD77bf7pivCtGzZsv5alknq2c9/RLNWuEkQuEsuucQvrAOtDvzCWRiLFy/2Fp8JTNY9JeOShGMQaKxrmxyfuELeuVw76/6xKgmXdGLfvHnzfLxEbyMh7CJ4YZ1CZiAANAVZmAzfCjL/L7zwQnfRRRf5heaBTZ1JGFgrgGXHOvMi1zrPpuA0EDgmtccyolmOdZZGrXCT3HPPPe6OO+7wC+uAsNFkDaeFRbjYDln3VAuavjS/qURoctMECq3CPLLunzBWrFjhLr30Um+Z8kKu6H0khF0EfR40/azfg0KMdfToo496i43fiBWiceedd/Yvc+fOdStXrvTnZFHmPISXgYTly5d7y2jhwoXVPXtTNj40R61/kHVA2JIDGfw28asXRI+4IcosWH+IYtjPlEat+1+yZIm/R/Yz1zXdCqK3kRB2EVhEjKpiiZgYYiFikSAsWEb0H9KUZD+/KdSMKteykMqchxjTh4ZVhtAhHiHEEysQ6o1PiFl/CBBwfSytIk3OMC4hw4cP99YqTWkboaZSQVxtdDjr3Lz7J0ysc8Khaczofpb1K3oHCWGX8fjjj3sBoIl5xRVXuDlz5njLiUIMiA2jyrxiM3v2bN/XRqFlVDWPMudRuBEJ68tLWms0DbGEzjvvvLrjE0IYvCrEgAn3TTO76Ks1YVxCEC8qD+4jJBw0yTo37/4ZXOE3TWOazfRj0ocoeptSThfIHNZvI1oLlhUd8whKsjAD+7Fm2I/VUpQy51HguXZWE5U+TAuj3viEWBgIf9o95xHGpSxZ5+bdv/XlIuKiPdB1FPZVd8zpgmgfDArwYLMEgf2MepYt/GXOQ9Ty+unCMOqNT4iFUVYEoZHrZp2bd/8IoESw97FXtEoJIRmDzCqEEO0E3UF/mg2VLhVhKSFEObFSJIZCiHaB3tA3i/60itIeqhFCmgTh+25CCNEqTG+SI/zN7CMsLYRCCNENNEMIEdinnnpKgyVCCCEhFEK0FN4EwLEFX/bUs3AuYbQCXlHj5ftSTWO8fwghRC3wJAQIGH17/K53sINRXbSHpi9f/RjNaBojgjjQKC2E20/6neovIZrHAU9/p7omeh1eczEhxJrDMW6jI76IIZ+fhv5ROyqEW4+7rvpLiOYx/PkfVtdErxMKIU1bfDY2Az4/xSuQ0VEhfGPc26u/hGgeh6z5WXVN9Dq9KIQaLBFCRI+EUAjRdnBlds0111R/9YF19uEPf9h7K283EsIu4JPvO899/oMz/fJnlfXLp0/0nlga4YD9hrpPXH9u9deejD38IPfNT13l9htW3GdgveTFoyiMFH7kIx+p/hIDAdys0WTGd6Xx9re/3TvSZWk3EsIu4NTjj3D/OW+Z+/efP+TmLljuLjprgnvvFcX6ObLYZ8hgd8rE3f0nIavXbXR//4N73OatjXmALkJePIqCk9dm9TOJ7oDP5r773e+6d7zjHf71GkaWJ02a5H76059Wj2gvEsIuYcULr7onn3/F3f/4KvfPP7zPzZp6THWPcwcdMMy9/aKT3e//P1O9tTg4sBaHVITmsmnHuf/z9jPdlecd74buk/5IJ44d6d4x62R/7j6DB1XEqa8ze9+hQ9w1F09y40ePcP/7bWe4ay87xY04cPeUrcMq+996wYnuQ5Vrv3nyGDftlLHuxPF7T8pe5LgpJ45255625xzE11wyyY08aD/v+++tb32rn37zuuuuc7/1W7+11zzDOEG1fWHziVcq3vKWt7jrr7/ee/MWvQGvwzDtwdve9jb37ne/2/3oRz/yc8J0AglhF7J95043aHDfo0Go/v6PLvVieM8jL1TE5Ej33itP8/vgY9dNc2dUtj247MWKmB3sPvuBC6p7dnPsmEPcx9473S1autrt3LXL7VtpEl953kS/j3VE9i0zTnCLn3jRHXrI/u7Pf/d8vw8+9f7z3QlHj/IC/eZJY9z7rzrdTThq98idUeS4NzZvc9cHcT/mqBHusnOOc69u2OLf8L/yyivdtdde6z0+423ks5/9bL/gIZR462ZeZI694YYbfPcB2z/zmc/4EUPc8l999dUSwx4CC5C5vPH7yCyGnUJC2CUcesgB7oiRB7qJ40Z6y+zOB5/127ds2+Fu+OqvfbMZkfnxbY+7M0860u87buwhlWWk+9K373YLlqx0X//xIjfvgWe9eBqIzQ3vPdd96Vt3u+UrX61u3ROO///+60G3sCK0X/2P+7yA0beHRXfkoQe6v6s0o9n3z5V9W7fv7cS06HHLnl1XyfA7vWDCBWeMd79Z9Ey/WzeaSN/+9rf97Ha/+MUvvPt+3OEDzePvfe97flqA73znO77fkDlObBa9+fPnu4ceesj95V/+pVu0aJE/R3Q/TM/A1BRY/5108CIh7BI+8s6z3Sfff577wFvPcI+tWOu++d99c5QAgvex357u/uGjl7o/fNeb+5u/NGefeG6dt/IM+hgRT9hv2FD3F/97ZkWAXnZPrczugN64eWt/f+GOnbu85XbAvvv4QZWnKuK5Y8duj9FPVZrvSYoeB7+5/xkvgDDj9KPdr+9d4deBz7HCzzifeOKJ/rmNaTJh9Rn8RgyZk5iZ5r785S+7j370o75gid4Aa58ujRtvvNH9/Oc/d+95z3saHiSsFwlhl/CZ/3u7+4O//aX7eMX6u+lXj7rtVVHB2vo/V5/pfj7/Sfen/3Sr++tv3eW3w6Yt23yTOQssrU//y+3u+IqVOfvsCdWtxdmwadse/YVwyEF7z/pW9Di4rWIBnnfaOHfyhMPcaxu3uJUv7Z6giWZuOPsd1l4oflncdNNNXgRvueUWP9nSVVddVd0juhn6BanEsAhvu+02v42JuzqBhLDLObzSZH5h7Qb3yPKX3NaKpWfWFDz81Eu+/88GJWha//OfXNZvMW7Ztt09s3q9+8KNd7n3XXm6b3aX4eEn11SsveH+mrxqM/2Use5NFQFLUvQ4WPvqG/5+Plhp/t8aWIPA96jMhAeIIoXiwQcf9L+zwGJ83/ve579moGlMP6ENsjCznk21mbUuOsNZZ53lvwq5+eab/W9c5tP1QT+x3iMUe3HvY6t8v9rXPjbHff2Gy93BgQVIE/ZvvrfQffy957q/rzSbv/z/znLf/+Ujblvl+JDn17zmvvaj+90nrj/PHZyw3PKgufzpb8xzs86a4P7xjy/1o753P/x8de9uih5nIIDjjxzh7njwueqWPpgGFBH7whe+4L7yla/4d81qdaAztzBzKtM0/vznP+8L2M9+9jNvWSKQEydOzFwXnYP+38997nN7TI7FJ3N/8id/0pH3CPWtcY+AgGERpr37xysxow7ez62vNDWTItgoI4bv69Zv2FL91ffy9x2Ln/ODMiFFj4OZZx7jzpk8xg/yGEdvut198YtfdB/60If6rbUyr1JwDv1LjDYb/LaBmKx10Xz0rbFoGfSnZb0AzWDJ2vWbmi6CCOznP3ih++DVZ7rzTz/aXTvnFHdCpRn+wNLV1SP6KHocAsS+6yrLT25bWt26Nwhg2ffJOD4UQQjFLmtdtBaeeSNTrRqEQVitorRFuPHIK6q/RAwMrzTFZ5890R0+arh78eXX3fwHn3HrXtvbW3CR4+g/nFU55rEVa9zTiVHs0RvmuRkzZrhbb721ukX0KqFFaI5ZsdzCgbAy0Hx+/vnnfQXWbMestCRWrFhRjxBeXv0lRPMYuU4COFAIhRBoHmOt12uJYwnSDxw2i6EZQkg8V69eXV4IhRCiFqEQtoqOCaEQQnQLzRRCDZYIIaJHQiiEiB4JoRAieiSEQoio4Zt2CaEQIlp4LWf8+PESQiFEvIwePdp/Zlf69Rk+iG7k5UghhCiDvVCd9ErTjNdnKvrX9/leGSFEBLnQoYce6l0mCSFEq0GocMCLq65QDJsphKWaxliCEkEhRDtBb9CdpFONZlJKCGkOSwSFEO0G3Wlld5wGS4QQUYNDYAmhECJamC8FT+gSQiFEtOAvESSEQojokRAKIaJHQiiEiB4JoRAieiSEQoho4dWZtWvXSgiFEPFy8MEHe8cLEkIhRPRICIUQ0SMhFEJEj4RQCBE9EkIhRPRICIUQ0SMhFEJEj4RQCBE9EkIhRPRICIUQ0SMhFEJEj4RQCBE9EkIhRPRICIUQ0SMhFEJEj4RQCBE9EkIhRPRICIUQ0SMhFEJEj4RQCBEtTN708ssvSwiFEPEybNgwt//++0sIhRBCQiiEiB4JoRAieiSEQojokRAKIaJHQiiEiB4JoRAieiSEQojokRAKIaJHQiiEiB4JoRAieiSEQojokRAKIaJHQiiEiB4JoRAieiSEQojokRAKIaJHQiiEiB4JoRAieiSEQojokRAKIaJHQiiEiB4JoRAieiSEQojokRAKIaJHQiiEiB4JoRAieiSEQojokRAKIaJHQiiEiB4JoRAieiSEQojokRAKIaJHQiiEiB4JoRAieiSEQojokRAKIaJHQiiEiB4JoRAieiSEQojokRAKIaJHQiiEiB4JoRAieiSEQojokRAKIaJHQiiEiB4JoRAieiSEQojokRAKIaJHQiiEiB4JoRAieiSEQojokRAKIaJHQiiEiB4JoRAieiSEQojokRAKIaJHQiiEiB4JoRAieiSEQojokRAKIaJHQiiEiB4JoRAieiSEQojokRAKIaJHQiiEiB4JoRAieiSEQojokRAKIaJHQiiEiB4JoRAieiSEQojokRAKIaJHQiiEiB4JoRAieiSEQojokRAKIaJHQiiEiB4JoRAieiSEQojokRAKIaJHQiiEiB4JoRAieiSEQojokRAKIaJHQiiEiB4JoRAieiSEQojokRAKIaJHQiiEiB4JoRAieiSEQojokRAKIaJHQiiEiB4JoRAieiSEQojokRAKIaJHQiiEiB4JoRAieiSEQojokRAKIaJHQiiEiB4JoRAieiSEQojokRAKIaJHQiiEiB4JoRAieiSEQojokRAKIaJHQiiEiB4JoRAieiSEQojokRAKIaJHQiiEiB4JoRAieiSEQojokRAKIaJHQiiEiB4JoRAieiSEQojokRAKIaJHQiiEiB4JoRAieiSEQojokRAKIaJHQiiEiB4JoRAieiSEQojokRAKIaJHQiiEiB4JoRAieiSEQojokRAKIaJHQiiEiB4JoRAieiSEQojokRAKIaJHQiiEiB4JoRAieiSEQojokRAKIaJHQiiEiB4JoRAieiSEQojokRAKIaJHQiiEiB4JoRAieiSEQojokRAKIaJHQiiEiB4JoRAieiSEQojokRAKIaJHQiiEiB4JoRAieiSEQojokRAKIaJHQiiEiB4JoRAieiSEQojokRAKIaJHQiiEiB4JoRAiekoJ4aBBg9yOHTuqv4QQoj2gO+hPqyglhAceeKB7+eWXJYZCiLaB3qA76E+rGDRt2rRd1fW9eOmll9zRRx9d/dXHK6+84jZu3Oh27co8TQghmgaWICI4cuTI6pY+nnvuOXf44YdXfzm3efNmN3jwYHfqqadWt+Tz8MMPu1GjRrmVK1eWF0IhhOgGmimEGiwRQkRPaYtw27Ztvs0+bNiw6hYRA1u3bnVDhgxxQ4cOrW7ZjfKEaCVZea9jTWMy/H777eeXVo7giO6DPmEyGkuYIZUnRKvJynsdaxpT6yvDxwnPnGeffGNAeUK0mqy810xKCSFNH2X4eOHZJ5u/yhOiHaTlvWaiwRIhRPREKYT0M5xyyinuoosucjNnznQnnniirBrhUd6IkyiFcPr06T5z33vvvW7x4sXuiCOOcJMnT67uFTGjvBEn0Qkhw/CMFC1ZssRt2LDBvfrqq+7+++93r732WvWIvn4vLIEpU6a4Y489tt8ioFCMHTvWrxsnn3yy23ffff06I1Ycz3kTJ0701xK9QzfkjazwgQGDk046ye8bM2ZMdatoBtEJISNPZGxqeet83bRpk3v22Wf9Ohl01qxZvom0atUqN3r06H6LgFdFQuvg4IMPdsccc4zbsmWL/3322Wf74fwXX3zRHXTQQd66EL1Dp/NGXvjso6m+fft2vw+RlRg2jyibxvPnz/eZ7dJLL/WZK6x5KQy33367e+SRR3ymXbZsmc+QwHfWO3fu7P/mkXcseZcJDjnkEJ/BaVKRUR988EF/jUMPPdTvF71BJ/NGXvhYlpyDKLNv3rx5PizRHIaMGzfus9X1vXjjjTfciBEjqr/6Xmw0U7+XIcOtXr3aPfnkk/4eaaqQWclgQM09adIk3wyhuUNBWL58ud+3zz77+ObTmjVr3BlnnOGbUbz5zjmVtPTHU3hY+FB83bp1ezSteh0snLC5NlDyhNHpvJEVPhYnVurUqVPdYYcd5revX7++elYcJPMeaRd6pMFaZr9VHrXgOe2///7u9ddfj88ipFa1WpsanMS47777fKYDMvLpp5/uMx+188KFC/12g1qeY6nNeTD0JQEFCKvgzjvv7F/mzp3r31oXvUGn80at8BFWzmP/cccd5/sSRXOITgiptWfMmOFreYNmDK7FgBqCDLx27VqfgZPfWtNnRA1y2mmn9Td9gM8RsZ6poai9qZmwCrie6A06nTfywqdpzSAJVg/WKVbrAQcc4Pchvoh43rrIJ7qmMRmJ+zrrrLN8E4VOZ0bjqPlpxrCPDMR2mkXU7GQ4auGQCRMmuEWLFvkMC1gQmOqEyz6aNlgUZNiBxEBuGnc6b+SFT9wQRgZPGIRhMIbXe7jGBRdc4C1OhDht3YS810nmvWY2jUs5XeCB8gAGAiQYmZx7IoGT0B/DPhK3DBYuBccKwkCCzMerIMZAyhNGp/NGXvhm4WFZGoRLhZS3PhBI5j2sbvpUjbY5XRhIkEGoNdMyOpBZy2Z0sHAHogjGQqfzRl74CGAoghCKXda6yKeUEPKAlLjxwrMnD4QoT4h2kJb3mkkpIeSlTsxPZfz44Jnz7MkDIcoTotWQt+jnTOa9ZlLaQzWZHtNco1FxYc+cPq4kyhOilWTlvWb2EWryJiFET6LBEiGEaCISQiFE9EgIhRDRIyEUQkSPhFAIET0SQiFE9EgIhRDRkyuEfLTNx99CCNFNoEvoU7PIFULe5GYCG4mhEKJbQI/QpbSvnOol98sSwFGkviUVQnQLWIKI4PDhw6tb+mjZJ3ZCCNEr6BM7IYRoADWNC5JljgshuoOWNY0RQQJmMhv+x4x10PJfYihE99GypjEBSwT7sAqBNBFCDCxyFY7msERwN6SFRs+FGHhI5YQQ0SMhFEJEj4RQCBE9EkIhRPRICIUQ0SMhFEJEj4RQCBE9EkIhRPRICIUQ0SMhFEJEj4RQCBE9EkIhRPRICIUQ0SMhFEJEj4RQCDGgKOIqL3mMhFAIMWBgSo033nij+isbjgnnRZYQCiEGDIjbunXrqr+y4RgJoRBiQIK4rV+/3q1du7a6ZW/YxzESQiHEgIUpNVavXu2ee+45t3HjRt8fyMI629iXnIJEQiiEGHAgdK+99pp7+umn3ZIlS/zCOtvS5mGSEAohBiQ0fRG9IUOG+IX1sDkcIiEUQkSPhFAIET0SQiFE9EgIhRDRIyEUQkSPhFAIET0SQiFE9EgIhRDRIyEUQkSPhFAIET0SQiFE9EgIhRDRIyEUQkSPhFAIET0SQiFE9EgIhRDRIyEUQkSPhFAIET0SQiFE9EgIhRDRIyEUQkTPoGnTpu2qru/FSy+95I4++ujqLwHMi3r44YdXfwkhuoXNmze7oUOH+vWKrrlrrrnGrye56aab3IIFC/z6iBEj3MqVK2URCiEGHgjdvffeW/21G7aZCIZICIUQAxIsv6VLl1Z/Ob/OtjQkhEKIAcmOHTvcjTfe6F544QW/sM62NCSEQogBC/2G3/jGN/zCehqDBg2SEAohBjavvvqqX/KQEAohokdCKISIHgmhECJ6JIRCiKhhsGTQxRdfnPlliRBCDHRWrVrl/n8zu9MWeS42kgAAAABJRU5ErkJggg==;" vertex="1" parent="EotIMpFfySxsgPy9Xf7X-8">
          <mxGeometry x="740" y="69" width="322" height="572" as="geometry" />
        </mxCell>
        <mxCell id="EotIMpFfySxsgPy9Xf7X-3" style="edgeStyle=orthogonalEdgeStyle;rounded=0;orthogonalLoop=1;jettySize=auto;html=1;exitX=1;exitY=0.5;exitDx=0;exitDy=0;" edge="1" parent="EotIMpFfySxsgPy9Xf7X-8" source="EotIMpFfySxsgPy9Xf7X-2" target="EotIMpFfySxsgPy9Xf7X-1">
          <mxGeometry relative="1" as="geometry" />
        </mxCell>
        <mxCell id="EotIMpFfySxsgPy9Xf7X-2" value="" style="shape=image;verticalLabelPosition=bottom;labelBackgroundColor=default;verticalAlign=top;aspect=fixed;imageAspect=0;image=data:image/png,iVBORw0KGgoAAAANSUhEUgAAAc8AAADgCAYAAABl9e18AAAAAXNSR0IArs4c6QAAAARnQU1BAACxjwv8YQUAAAAJcEhZcwAADsMAAA7DAcdvqGQAABs+SURBVHhe7d0J1BVl4cfxh03QAEFcYnXB0FxaUMIF0RTMANc0F5ZCT5HZcTllubRQR7NOWadTRmlapsIxNZdzxMzQMDRXUBElkxRRRCMQBBIl+f+/DzMvl8ud+96H5V2/n3PmvPfOzJ07c++d+c3zzLzP02bIkCFrgyRJqlnb7K8kSaqR4SlJUiLDU5KkRIanJEmJDE9JkhIZnpIkJTI8JUlKZHhKkpTI8JQkKZHhKUlSIsNTkqREhqckSYkMT0mSEhmekiQlMjwlSUpkeEqSlMjwlCQpkeEpSVKiNv3791+bPZYkSTVoM2jQoKTwfPPNN8Puu++ePZMkqfWx2laSpESGpyRJiQxPSZISGZ6SJCVq17t374nZ4zrdunULnTp1Cu+88042Zr2VK1eG7t27Z882NmTIkLDPPvuEF198MRuz5W277bahTZs24f3338/GbH39+vULI0aMCEcccUTYa6+94mfzn//8J5vaMPr06VO3DnvvvXdYvXp1WLx4cTa16ar1N3HooYfG77bS51ptWkMZPXp0+Mc//hH+97//ZWPW6dixY/jsZz8bnn322WxM/VraftKlS5f4+Xz84x/fYFizZk28yXBTfeADHwjbbLNNeO+997IxUtOwUcmT0PzCF74QBx6naNeuXTzIHXDAAWG77bbLxm55o0aNCvvvv3/2LN1uu+0WX8+BpRYDBgwIZ5xxRnjhhRfCLbfcEp5++ulw4oknhgMPPDCbY+vbc889w5gxY+LB9tZbbw3PPPNMOO644xp0HVI/N6T8JnbeeefQtWvX7NmGqk1rKNxl3rbtxpU1bGPKHegtcT8h4Pr37x86dOgQlixZUjf897//zebYNOx3DFJTs0HJk536rLPOigcCziT79u0bZs2aFdauXf/fLNVKnpTIKLW++uqr8YyRv7nOnTuHgw8+OHzkIx+J75OXmIrG85hgYOD9Fi1aFM+g2ZmZd/vtt4/h/tprrxUuo8gHP/jBeGDgwFXLWfHnPve58Mc//jHMmTMnbv8bb7wRFixYEE466aTw0EMPxc+Hs3zW4WMf+1hct9dffz2O52AydOjQWEr85Cc/GXbcccf4uXBW/olPfCKWWlgeirYZrMPtt98e12HFihVx2iuvvBJDnHVA6et32mmnuFxKSfk6sD6sA6/lTL7ovYqkfm6o9pto3759GDx4cAwRDtCs8/Lly8PChQsLp/373/9O2pbU313R9wjel5OWww47LG4X68Pvgc/3oIMOCn/729/ifNW+R7TE/YR5WDa/xb/85S+xhM6wdOnSOJ3vk++S9ezVq1cMVvYJ1o/vkd/0wIED43pTWuV1zE/pnO+E49HLL78ct419aNCgQeGjH/1ofD2/8/p+u9KWtsFp9Kmnnhp37ByPGVcrAoFSGQOPcxxcJkyYEHeWuXPnhqOOOiruFEXjQTXYHnvsEUt7lDrGjh0bx1Ntx47Gjs9OU20ZRZjvn//8Z/j/E4d4kKx2Zs1Bm9LGvHnzsjHrEFyXX3553GlZh3POOSfu5CybUuLw4cPjfEzjYEtQsgwODmeeeWY8GLz00kvhmGOOiWfsKNpm1oGDXfk6EOBXXHFF3cGd1/PevJ6DCidCvI514MBPVSEHID6roveqJuVzyxX9JkCJghM01uHDH/7wBqW3omkp21L026g2vuh7zB1//PHxd0eYjB8/PvTs2TObsl59n21L3E9y7CsEZT6A140bNy58+tOfjieLbPNXvvKVeAJBoPNdnnbaaXE/2HfffePnynvyPfD7ZWB/YTn8Pfvss+tKxEcffXQ8gZQaWl14cubM2Vw5xjGtPvzQ2Ymfe+65GAr8yDnog7Nrzn6feuqpuDNec8014fnnny8czwGJ1/7hD3+IO/Bdd90Vl891R0olnPFTIuDgWbSM+jAvy+a9OMOtVB0HtuOtt97Knq27vsWBJB94b0o+vO+f//zneBCjBEJVb46DyNSpU+NnwzQOZA8++GCYPXt2XG9Coto2l69DJbyea6JUK/P6u+++O7z77rt1B0gOQCyb9+OgVfRe9an1c0O13wSlDx7fdttt8fuiVE2Jo75pqHVbUn939X2P4HvjdU888USYMWNGrH4tVe17RLXPpDnvJzlOBidOnFg38J6chLDN/Cb5fV533XVxPyr97CjR//a3v43rRSh+6EMfip8v4c/A6/h+dtlll/jaRx99NNx5553hN7/5TXwsNbS6aluqju69996KQ2m1UlG1LVUu/LA5yHHWyEGNHZnSEjfXUK3zmc98JlYDgeqlovGcge63335xILwZeE9KWpxFc3ZKtQ4HhqJl1IJlcPBivVHpZhS2gWquxx57bIPnXH/jxh12+lWrVsWSEWfzVEGx3hxkHnnkkRiUrP/06dPj63fYYYcYDhzEsOuuu8YwYP6ibeYgWLoOlXCA4qDC+uR4L87sWUbpOjBvtc+3PrV8bqj2m+A75sBaur6E/7Jly+I8RdOotq11W+bPn5/0u0PR9whKvPfdd188iIMSP9vId5lX29b32bbU/YRlU23LScW0adPid8fA90XNAZ8LJ5CsBwO/Z36vXMNnvfmMmZdrpEceeWQ85vCZENiYOXNm/Pv222/HIKZKn9dRw8LJAeOlhlTxbttqisJz5MiRcYflYMOBj/moWvn73/8ep7MjcIZIVdLhhx8edzYObpXGExaE0w033BCvuTKwHHZ2DlilB4Vqy64POyEHEqrguJaYV3+WYmceNmxYvJOSx5TmKJVQbUt1EwcKzspPPvnkWGJ54IEH4vqw7Xl4ll4P43oNJc08PDlYc6bN9hRtM58lB3TWsfQGDA4cVNtRguU7YVm8LsfnxGv5nErXgXmrfb71qeVzQ7XfBOvAckrXlwMlpQy2sWgaB9iUbUn53XF9uOh7BOFJVSsnS+AkiIHfRr5O9a1PS91PWBbhye+agYBlYF5Cl7vDGZ+HHCcnrBvBRwjyGfLdgvDMt7k8PLlM8uSTT8aSOydTnDhwSSS/90BqKNXrYGrUo0ePWH10xx13xAMPA1U0XF9hx2Mad4Zyxp5XA+XVbZXGs0NxswIHIs5SCZcTTjghnqmCs3bOhFG0jPpQLcQOzYGFnbHohgPei+ojrv2yPqCkwM1C7PBsIyHGgZ31Zj04q05VbZs5qHNgLl0HquGYzgGUgwZVgLyeEhpYJw4s3LRRrr7Pt5paP7f6fhP5OlD6AvNSOkG1aeWqbUvRb6NofC3fIyEJwu+QQw7Z6POttj4teT+phpNN1oXrx5w8EtzUiNTyrz2sL+tJDQ24D+PCCy+M202Q5zeX8X1IDWmLlDw5iHBNrvwaCmfWeQmCO+O4uE+1FTc2cNDgNZXGc3bK2fkpp5wSx1M9yg6fH6g4c+b/HTmgciZdaRmlJbRyHAx4LXcgUpKo74yVs2DCiiovrtNQAqFaifch2NgOgor15Ow7/4xSSp4cYKptMyVdzu5L14Ezc6rCWH8OTpQ4KDlxLZbvhLseqRYrXwfmrfZeRVI+t/p+E1TpUTKh5Mz3x0Ga6kZew7YWTSsveVbbFkIp5XdHQBR9j+Az53viBhW+A+4YJQCpds/Xqdr6tOT9JC958v58V6X4HvhtcqctwUkQckJKaZGSc7WSJycFrDelS7aB0i/BScmVmh/2S6715qVrqaE0aK8qHCQIivIdtmg8Z5OcoTKeM9BSzM8ZZz6+aBmVUAXFGTk7bH3BWYrls7OyQ3OQLMcBhPFU7W6qatuMfB2YXv7P+uD1bBsHzkrTS9X3XuU29XOrhuChJM/6lqs2rVy1bUn93dX3PbJOvC6vvq0k9bMt1dz3kyK8b7X9pwjbxwkgIZxjm/Lfxpb6LUop7JJMkqREXiiQJCmR4SlJUiLDU5KkRIanJEmJNumGIe5ykySptdqk8OR/FSVJaq2stpUkKZHhKUlSokattv3iF78Ye1wo9bvf/S42BSZJUlPVqCXP8uAEbbPShFetzj333NjuZSVjxowJn/rUp7Jn65pdo3F1+hm89NJLY7ufNP0FlkEboeVOP/302CYneC+aQStF4+Xjx4/PnkmSWoMmV21LOF122WXhpz/96QYDpdRKaLx61KhR2bP1aDyaBqbpMipH+NG+5qRJk8KNN94Yu2yioXVQ2qVxb3ptyNFIOI1o5/1K8l60sVmKQKZfRUlS69FsrnlWKqXmaOya3h9K0cME3UvlttlmmzjPzTffHHuioNeGa6+9NnZpBBqdnjJlSiyt0iA5wxlnnBFDdnMaepcktTwt4oYhOi6mi6IcQUn3SNOnT8/GhBiAdK1E1WxeLUyXUnSLlKMXfMZRYqXrJro58vqrJKlciwhPes+nN/78eiTXL+nTkJ7mS1155ZWxmvWHP/xhuOSSS2LpNL/mmaOkSTUw10onT56cjV3voosuCt///vfrhgkTJmRTJEmtRYsIT/omfPzxx2PnuKAUev/998fHpZYvXx7v5j3vvPNiB7p0TswNQaXokHfmzJnhscceix0yl7vqqqti+ObDTTfdlE2RJLUWLSI8QVhSkqSXepoPnDt3bjZlHapq6dwXdBJNB79XX311xTt16ayXoRJ676dEmw+1dNQsSWpZWkx4cj2TkiV35XINtBzXQS+++OK6AAV31/J/q5IkpWjU8Hz++eezR/V77rnnskfFpk2bFhtwmDFjRjZmvaVLl8Yq2wsuuCD84Ac/CD//+c/j/29yx60kSSlaXcPw/J9nt27dYtUtJVVJklK1mGrbWq1duzaWQg1OSdKmanXhKUnS5jI8JUlKZHhKkpTI8JQkKZH9eUqSlKhRS55boj/PSuiO7Cc/+Uno2LFjNkaSpC2nUUue9NNZKxpUoDm9WtCd2IABA5IaYZAkqVbN5ppnUX+eXbt2DSNHjgxjx46NHVeD8Mw7taZZvmOPPTb069cvzkNXYzSUcOihh8bngwcPjvOVq7RclnXCCSfExzk6027fvn3d+/Tu3TuMHj06nHjiiaFLly7ZXJKklqRZ3zBEYH3rW9+Kjbg/9dRTMdgOOOCAOP6oo46qm2fEiBGxpxWa+KMh+G984xuxlSG6LTv11FPDPvvsE+fN1bLc3PDhw2NY5+/Dc96ne/fu4fzzz8/mkiS1JM06PCnZ0YMK/XnOnj079q9Jd2LlOnToEKZMmRKefPLJcM8998Tnd999d+x27OGHHw79+/fP5lyn1uWWI0B5n1mzZoXrr78+9OnTJy5HktSyNOvwpL/N6dOnx341KeXR0Hsl9Pf57rvvxsdr1qzZoLsxnhOmpWpdbrlVq1aF1atXx8e0ncv7dOrUKT6XJLUczTo8ccstt4Svfe1rsUcVqlS5TrklVFou7eJSRZvj2mnpc0lS69Csw7NXr15h3LhxsVRJ9Sr/H9qjR49s6qYrWu7KlStjgHKNlOAcNmyY4SlJrVCjhufm9uf5xhtvxP8JpX/OiRMnxrtip06dmk3ddNWWO3ny5HDuuefG/kAJ0Lw6WJLUerSI/jy32267GGSUDLekouW2bds2DlwvlSS1Ps3+mie4UWdLByeKlvv+++8bnJLUirWI8JQkqSEZnpIkJTI8JUlKZHhKkpTI/jwlSUrUrnfv3hOzxzXh7lP+hWNLGDNmTPZovT333DO2Ofvee+9lY6pjXU466aRwyimnxJ5SaJd23rx5sTED8D+Zc+bMif+PyWPGv/baa3FaKdalZ8+e8bUofV2OHlPob5TG4sE8Q4cOje+bD4sXL47N+1V6vSSpZWhy1badO3cOl112Wezrs3SglFoJIcX/Yk6aNCnceOONYd99943dhOX23nvvurZreTxq1Kj4uBSdZx955JGxZaFc6etyBHVpI/LMc++998am/PIhD+ZKr5cktQwbhCelMv6HkUbNGXicl+AaW6X+POnFhJLqzTffHFsFmj9/frj22mvDwoULszk2RkPtvKbUEUccEUuMm2LBggXh5Zdfrhu2xv+bSpKalrrwJCjpAHr33XcP++23Xxx4zDimNUVUiVLSo8qW5vSwZMmS8NBDD8XHlTzwwAOxb88cAXzwwQfHXlQkSapFDE/CkarLvn37xhCiGpSBx4xjWlMN0CuvvDJWp9J92CWXXBJLkTSdV4Q+Ovfff/9YPQw6x6ZT7GXLlsXnpS666KLYl2c+TJgwIZuyXvk8hLEkqWVrS7Xs9ttvX/UOWqYxT1Opwi21fPnyeIfueeedF+66665wyCGHhNNPPz2bujH69nz88cfDkCFD4nNKoffff398XO6qq66KoZwPN910UzZlvfJ5ar3RSZLUfMXw3GGHHbKnxZinqYUnJePddtstPuYa7bPPPhuuvvrqWJqshrCkhLrrrruGbbfdNsydOzebsqG33347lkjzYcWKFdmU9crnaYonGJKkLSuGZy3/esI8TS0YqCK9+OKL6wIUBx10UPxf1Gq4TkqJlTt4uQYqSVKKeHGQ65v1qWWeVJvbn+fSpUtjle0FF1wQ+96kj80DDzww3nFbn2nTpsXq6BkzZmRjNs3ll18efvnLX9YNVBtLklq2NgMHDlzLDTS1mD17dmwAoKn150mwd+vWLVbdUqKUJGlrKr4ttRmhOplSqMEpSWoILSI8JUlqSIanJEmJGvWaJ23YDh48OHtWGTcEVfr/SkmSGkujljzrC058/vOfr9rogSRJDa1ZVNueeeaZ4bTTTsueSZLUuBq12va+++7LHtVm+PDh2aP16JKsY8eO2bN1brvttvCvf/0re5aOlotoZq+0L8499tgjHHPMMbGdX+7spXGFvF9PWik666yzwi9+8Yv4vDFUWmdJ0tbR7G8YqtSn5uuvv55N3TSjR4/eoIk/+gil7Vya/7vmmmvCI488EsaNGxcOP/zwOL1du3Zhr732io8bS/k6S5K2nnY9e/acuMsuu2RPq6PZOxpWr6U5v1oQQLjuuuvCgw8+GB599NGNBvrpJCBxww03xL+lRo4cGW6//fawaNGi8NZbb8VhzZo1cRqhRsANHTo0/P92hldffTVOo1m/ESNGxL43jzvuuNi/J032UWojgLgWS1u+bOdLL70UvvrVr8Z1fOKJJ+L/krKcefPmhfHjx4c//elPcXnDhg0LTz/9dDj22GPDgAEDYoC/8847cT0oFVJqpuszlvvKK6/E/03N14PHxx9/fOwblB5hKs2LfHsOO+ywsNNOO8X56e2m0jqXzrvzzjvXzVvpPflOJUm1axIlT65pUrKrNHCA31Rf+tKXYqnxmWeeCT169Ijdh7Vv374uQAgpmv3r3r17OP/88+NrCGsae+cvwULo8pry5gFffPHFWGWcBxvLPProo2Mj81QjX3jhhbHlI8Z/97vfjQFKNS/rc/LJJ9e9hvCnOphu0Qi3onlx9tlnx3Fz5swJvXr1iqGO8nUG89KBOKVl5s23r/w984CXJNWuSYQnpbqf/exnFYc777wzm6tYaZ+aPEa/fv3idcpf//rXMYj4dxeCYuDAgXE6ITJlypQwa9ascP3114c+ffrEa5fz58+PHWrz94UXXohdsS1evDi+phoCluXNnDkzTJ48OZYAKQlSmmW9qE4mxO+5557Yn2iOEiLr+PDDD8drqUXzsj0MkyZNiu9BKZySOdtRvs7MR+j/6le/itv3+9//Pq4PJWyUvielb0lSmhZR8iztU5PH6N27d6y+zKtwQbAQkli1alVYvXp1fEybuARrp06d4vNSVGlSEqxP6fJAKOXLo+szSoLf+9734o1FhFeO9y29yado3nx7Sjsl/+tf/1rxBiHmJfS//e1vh+985ztxoJqXAeXvKUlK0yRLnrWUNkuV9qnJYxAQ5ddmCUHGp+BaKNW6efDkKFVSFVpfbzOUfseOHRv7EKVRCHpeKVJtXta7c+fO2bPqCHGC9kc/+lHd8PWvfz12Ai5J2nxNsuS5Odc5c1x77Nu3bwwkEHaDBg2q+/eSaiitUnLLH0+dOjV8+ctfrvsXnS5dusSbhahmza95FuF9uZmJ64uU9qo1DFFtXrYnr4oG60LAUl2M0nXm9czLPJSICXgam6hUspYkpWsS4bk1UN3KdT1Cj2rLb37zm+HWW28NCxcuzOYoRnUod8/mN+Rw7ZE7bSdOnBhLxj/+8Y/jzTm1NBvItUuCjWuZV1xxRdXSY7V58+0555xz4k1Fl156abjjjjvi/ChdZ6qM+Zcabmii+pe+TgnlFStWxHklSZun2TeSUB/+9YMSGdW5edDUgtJahw4dNrg2yLiuXbvGcEpZFghCGjEovS5apNq81banfJ3zeVlfr3FK0pbTqCVP7hatVcq8pbjBhurV1LCjOrY8cBjHddXUZYFSXy3BiWrzVtue8nXO5zU4JWnLatSSpyRJzVGLveYpSdLWYnhKkpTI8JQkKZHhKUlSIsNTkqREhqckSYkMT0mSEhmekiQlMjwlSUpkeEqSlMjwlCQpkeEpSVIiw1OSpESGpyRJiQxPSZISGZ6SJCUyPCVJSmR4SpKUyPCUJCmR4SlJUiLDU5KkRIanJEmJDE9JkhIZnpIkJTI8JUlKZHhKkpTI8JQkKZHhKUlSIsNTkqREhqckSYkMT0mSEhmekiQlMjwlSUpkeEqSlMjwlCQpkeEpSVIiw1OSpESGpyRJiQxPSZISGZ6SJCUyPCVJSmR4SpKUyPCUJCmR4SlJUiLDU5KkRIanJEmJDE9JkhIZnpIkJTI8JUlKZHhKkpTI8JQkKZHhKUlSIsNTkqREhqckSYkMT0mSEhmekiQlMjwlSUpkeEqSlMjwlCQpkeEpSVIiw1OSpESGpyRJiQxPSZISGZ6SJCUyPCVJSmR4SpKUyPCUJCmR4SlJUiLDU5KkRIanJEmJDE9JkhIZnpIkJTI8JUlKZHhKkpTI8JQkKZHhKUlSIsNTkqREhqckSYkMT0mSEhmekiQlMjwlSUpkeEqSlMjwlCQpkeEpSVIiw1OSpESGpyRJiQxPSZISGZ6SJCUyPCVJSmR4SpKUyPCUJCmR4SlJUiLDU5KkRIanJEmJDE9JkhIZnpIkJTI8JUlKZHhKkpTI8JQkKZHhKUlSIsNTkqREhqckSYkMT0mSEhmekiQlMjwlSUpkeEqSlCiG59q1a+OTamqZR5Kk1qBtmzZtwqpVq7KnxZiHeSVJau1ieC5ZsiR7Wox5DE9JkrLwXLZsWVi8eHE2amNMYx7DU5Kk7Jpn27Ztw6JFi8KCBQvCypUr4/VNBh4zjmnMI0mSQmgzaNCgujuB8tDMbw6ipJkPuTfffDPsuOOO2TNJklqfDYqThCQlzHbt2sWBx1bVSpK0IetiJUlKZHhKkpTI8JQkKZHhKUlSIsNTkqREhqckSUlC+D9XtuVlHAyFyQAAAABJRU5ErkJggg==;" vertex="1" parent="EotIMpFfySxsgPy9Xf7X-8">
          <mxGeometry x="90" y="243" width="463" height="224" as="geometry" />
        </mxCell>
        <mxCell id="EotIMpFfySxsgPy9Xf7X-7" value="字体生成操作流程" style="text;html=1;align=center;verticalAlign=middle;whiteSpace=wrap;rounded=0;fontSize=40;strokeColor=default;" vertex="1" parent="EotIMpFfySxsgPy9Xf7X-8">
          <mxGeometry x="90" y="83" width="460" height="100" as="geometry" />
        </mxCell>
      </root>
    </mxGraphModel>
  </diagram>
</mxfile>
